<?xml version="1.0" encoding="iso-8859-1"?>
<!-- Generator: Adobe Illustrator 17.1.0, SVG Export Plug-In . SVG Version: 6.00 Build 0)  -->
<!DOCTYPE svg PUBLIC "-//W3C//DTD SVG 1.1//EN" "http://www.w3.org/Graphics/SVG/1.1/DTD/svg11.dtd">
<svg version="1.1" id="Capa_1" xmlns="http://www.w3.org/2000/svg" xmlns:xlink="http://www.w3.org/1999/xlink" x="0px" y="0px"
	 viewBox="0 0 380.347 380.347" style="enable-background:new 0 0 380.347 380.347;" xml:space="preserve">
<path d="M144.623,204.001c0-4.418,3.582-8,8-8h1.328c4.418,0,8,3.582,8,8s-3.582,8-8,8h-1.328
	C148.205,212.001,144.623,208.42,144.623,204.001z M291.112,97.612l-18.135,241.416v33.319c0,4.418-3.582,8-8,8H115.372
	c-4.418,0-8-3.582-8-8v-33.319L89.235,97.612c-0.167-2.219,0.599-4.408,2.113-6.04c1.514-1.632,3.639-2.559,5.865-2.559h139.213
	l6.13-81.612c0.331-4.406,4.166-7.708,8.577-7.378c4.406,0.331,7.709,4.171,7.378,8.577l-6.041,80.414h30.664
	c2.226,0,4.351,0.927,5.865,2.559C290.513,93.204,291.278,95.393,291.112,97.612z M256.977,346.728H123.372v17.619h133.605V346.728z
	 M274.511,105.013h-23.242L236.9,296.297c-0.332,4.406-4.169,7.698-8.577,7.378c-4.406-0.331-7.709-4.171-7.378-8.577
	l14.279-190.086H105.836l3.344,44.508h95.455c4.418,0,8,3.582,8,8s-3.582,8-8,8h-94.253l12.411,165.207h134.763L274.511,105.013z
	 M180.948,242.482h-1.33c-4.418,0-8,3.582-8,8s3.582,8,8,8h1.33c4.418,0,8-3.582,8-8S185.366,242.482,180.948,242.482z
	 M155.281,287.7h-1.33c-4.418,0-8,3.582-8,8s3.582,8,8,8h1.33c4.418,0,8-3.582,8-8S159.699,287.7,155.281,287.7z"/>
<g>
</g>
<g>
</g>
<g>
</g>
<g>
</g>
<g>
</g>
<g>
</g>
<g>
</g>
<g>
</g>
<g>
</g>
<g>
</g>
<g>
</g>
<g>
</g>
<g>
</g>
<g>
</g>
<g>
</g>
</svg>
